<svg width="215" height="22" viewBox="0 0 215 22" fill="none" xmlns="http://www.w3.org/2000/svg">
<path d="M33.1248 2.33599H37.0722L43.032 19.2904L44.5284 19.5409V21.0435H36.9174V19.5409L38.8524 19.2904L37.8462 16.0348H31.164L30.1578 19.3155L32.2476 19.5409V21.0435H25.6686L25.6428 19.5409L27.1908 19.2904L33.1248 2.33599ZM34.905 6.56834L34.4406 4.61494L33.9504 6.59338L31.6542 14.2817H37.3302L34.905 6.56834Z" fill="#2A2A2A"/>
<path d="M46.8027 9.49842L45.1515 9.04764V7.31964L49.4342 6.79373H49.5117L50.1567 7.2946V8.27129L50.1308 8.87234C50.7328 8.32138 51.5155 7.84555 52.4787 7.44486C53.4419 7.04416 54.4137 6.84381 55.3941 6.84381C56.4433 6.84381 57.2603 7.03581 57.8451 7.41981C58.4471 7.78712 58.8771 8.37147 59.1351 9.17286C59.3931 9.97425 59.5221 11.0595 59.5221 12.4285V19.3405L61.0959 19.5409V21.0435H54.4395V19.5409L55.8327 19.3405V12.4285C55.8327 11.5603 55.7725 10.8842 55.6521 10.4C55.5317 9.89912 55.3081 9.54016 54.9813 9.32312C54.6717 9.08938 54.2245 8.97251 53.6397 8.97251C52.6593 8.97251 51.6101 9.38155 50.4921 10.1996V19.3155L52.0401 19.5409V21.0435H45.3063V19.5409L46.8027 19.3155V9.49842Z" fill="#2A2A2A"/>
<path d="M68.3112 21.3189C67.2448 21.3189 66.2902 21.0769 65.4474 20.5927C64.6046 20.0918 63.9338 19.3238 63.435 18.2887C62.9362 17.2536 62.6868 15.9596 62.6868 14.4069C62.6868 13.0045 62.9792 11.7273 63.564 10.5753C64.166 9.4066 65.0432 8.47999 66.1956 7.79547C67.348 7.11094 68.7326 6.76868 70.3494 6.76868C71.003 6.76868 71.6222 6.83547 72.207 6.96903V2.73668L69.6786 2.38607V1.00868L74.9934 0.507812H75.0708L75.7932 1.03373V19.5158H77.1864V20.9433C75.948 21.1937 74.9246 21.3189 74.1162 21.3189C73.5658 21.3189 73.1702 21.2271 72.9294 21.0435C72.7058 20.8765 72.594 20.5342 72.594 20.0167V19.3155C72.1468 19.8998 71.5362 20.384 70.7622 20.768C69.9882 21.1353 69.1712 21.3189 68.3112 21.3189ZM69.6528 19.2403C70.2204 19.2403 70.7192 19.1318 71.1492 18.9148C71.5964 18.681 71.949 18.4056 72.207 18.0883V8.97251C72.0866 8.80555 71.8286 8.66364 71.433 8.54677C71.0546 8.4299 70.6418 8.37147 70.1946 8.37147C69.0938 8.37147 68.208 8.83894 67.5372 9.7739C66.8836 10.6922 66.5568 12.1697 66.5568 14.2066C66.5568 15.9096 66.8406 17.1784 67.4082 18.0132C67.9758 18.8313 68.724 19.2403 69.6528 19.2403Z" fill="#2A2A2A"/>
<path d="M85.5708 21.3189C83.3004 21.3189 81.6062 20.6762 80.4882 19.3906C79.3874 18.0883 78.837 16.3186 78.837 14.0814C78.837 12.5788 79.1208 11.2765 79.6884 10.1746C80.2732 9.07268 81.0902 8.22955 82.1394 7.64521C83.1886 7.06086 84.4012 6.76868 85.7772 6.76868C87.4972 6.76868 88.8216 7.21112 89.7504 8.09599C90.6792 8.96416 91.1608 10.208 91.1952 11.8275C91.1952 12.9294 91.1264 13.7475 90.9888 14.2817H82.6038C82.6726 15.801 83.0424 16.9864 83.7132 17.8379C84.384 18.6727 85.3386 19.0901 86.577 19.0901C87.2478 19.0901 87.9358 18.9816 88.641 18.7645C89.3634 18.5475 89.931 18.2887 90.3438 17.9882L90.9888 19.3656C90.5244 19.8497 89.7676 20.3005 88.7184 20.7179C87.6864 21.1186 86.6372 21.3189 85.5708 21.3189ZM87.5832 12.7791C87.6176 12.3116 87.6348 11.9527 87.6348 11.7022C87.6348 9.48173 86.8694 8.37147 85.3386 8.37147C84.4958 8.37147 83.8422 8.69703 83.3778 9.34816C82.9134 9.99929 82.6554 11.1429 82.6038 12.7791H87.5832Z" fill="#2A2A2A"/>
<path d="M93.2541 19.5659L94.9569 19.3656V9.49842L93.3057 9.04764V7.31964L97.3047 6.79373H97.3821L98.0271 7.2946V7.84555L97.9497 9.87408H98.0271C98.1475 9.54016 98.4313 9.13112 98.8785 8.64694C99.3257 8.14607 99.8847 7.71199 100.556 7.34468C101.244 6.96068 101.983 6.76868 102.774 6.76868C103.153 6.76868 103.48 6.81877 103.755 6.91894V10.6755C103.239 10.3249 102.611 10.1496 101.871 10.1496C100.616 10.1496 99.5235 10.4751 98.5947 11.1262V19.3405L101.588 19.5659V21.0435H93.2541V19.5659Z" fill="#2A2A2A"/>
<path d="M108.262 18.9899C108.4 19.1903 108.709 19.3823 109.191 19.5659C109.69 19.7329 110.188 19.8163 110.687 19.8163C111.496 19.8163 112.098 19.6577 112.493 19.3405C112.906 19.0066 113.112 18.5725 113.112 18.0383C113.112 17.4873 112.863 17.0449 112.364 16.7109C111.865 16.3603 111.023 15.9346 109.836 15.4337L109.113 15.1332C107.927 14.649 107.041 14.0647 106.456 13.3802C105.871 12.6956 105.579 11.8108 105.579 10.7256C105.579 9.97425 105.811 9.30642 106.275 8.72208C106.74 8.12103 107.393 7.65355 108.236 7.31964C109.079 6.98573 110.051 6.81877 111.152 6.81877C111.96 6.81877 112.648 6.86886 113.216 6.96903C113.8 7.0692 114.411 7.20277 115.047 7.36973C115.391 7.4866 115.649 7.55338 115.821 7.57007V10.8508H113.783L113.19 8.94747C113.087 8.78051 112.854 8.63025 112.493 8.49668C112.132 8.36312 111.719 8.29634 111.255 8.29634C110.55 8.29634 109.982 8.4466 109.552 8.74712C109.139 9.03094 108.933 9.43164 108.933 9.94921C108.933 10.4167 109.079 10.809 109.371 11.1262C109.664 11.4268 109.982 11.6605 110.326 11.8275C110.67 11.9944 111.306 12.2699 112.235 12.6539C113.164 13.0379 113.929 13.4052 114.531 13.7558C115.151 14.1064 115.658 14.5656 116.054 15.1332C116.466 15.6842 116.673 16.3603 116.673 17.1617C116.673 18.3972 116.174 19.3989 115.176 20.1669C114.179 20.9349 112.743 21.3189 110.868 21.3189C109.991 21.3189 109.199 21.2438 108.494 21.0936C107.806 20.9433 107.006 20.7429 106.095 20.4925L105.527 20.3172V17.0115H107.669L108.262 18.9899Z" fill="#2A2A2A"/>
<path d="M118.777 14.1064C118.777 12.537 119.095 11.2014 119.732 10.0995C120.385 8.99755 121.254 8.17112 122.337 7.62016C123.421 7.05251 124.599 6.76868 125.872 6.76868C128.039 6.76868 129.708 7.41981 130.877 8.72208C132.064 10.0076 132.657 11.7607 132.657 13.9812C132.657 15.5673 132.331 16.9196 131.677 18.0383C131.041 19.1402 130.181 19.9666 129.097 20.5176C128.031 21.0518 126.852 21.3189 125.562 21.3189C123.412 21.3189 121.744 20.6762 120.557 19.3906C119.37 18.0883 118.777 16.3269 118.777 14.1064ZM125.769 19.6911C127.712 19.6911 128.684 17.8713 128.684 14.2316C128.684 12.3283 128.452 10.8842 127.988 9.89912C127.523 8.89738 126.766 8.39651 125.717 8.39651C123.722 8.39651 122.724 10.2163 122.724 13.856C122.724 15.7593 122.965 17.2118 123.447 18.2136C123.946 19.1986 124.72 19.6911 125.769 19.6911Z" fill="#2A2A2A"/>
<path d="M136.448 9.49842L134.796 9.04764V7.31964L139.079 6.79373H139.157L139.802 7.2946V8.27129L139.776 8.87234C140.378 8.32138 141.16 7.84555 142.124 7.44486C143.087 7.04416 144.059 6.84381 145.039 6.84381C146.088 6.84381 146.905 7.03581 147.49 7.41981C148.092 7.78712 148.522 8.37147 148.78 9.17286C149.038 9.97425 149.167 11.0595 149.167 12.4285V19.3405L150.741 19.5409V21.0435H144.084V19.5409L145.478 19.3405V12.4285C145.478 11.5603 145.417 10.8842 145.297 10.4C145.177 9.89912 144.953 9.54016 144.626 9.32312C144.317 9.08938 143.869 8.97251 143.285 8.97251C142.304 8.97251 141.255 9.38155 140.137 10.1996V19.3155L141.685 19.5409V21.0435H134.951V19.5409L136.448 19.3155V9.49842Z" fill="#2A2A2A"/>
<path d="M160.596 4.31442L158.661 3.98886V2.43616H162.556C162.918 2.43616 163.477 2.41946 164.233 2.38607C165.231 2.31929 166.134 2.2859 166.942 2.2859C168.731 2.2859 170.142 2.50294 171.174 2.93703C172.223 3.35442 172.962 3.96381 173.392 4.7652C173.84 5.5499 174.063 6.55164 174.063 7.77042C174.063 9.87408 173.384 11.5103 172.025 12.6789C170.683 13.8476 168.817 14.432 166.426 14.432C165.48 14.432 164.801 14.4069 164.388 14.3569V19.2904L167.845 19.5409V21.0435H158.557V19.5409L160.596 19.2904V4.31442ZM164.362 12.7541C164.758 12.8376 165.429 12.8793 166.375 12.8793C167.527 12.8793 168.447 12.4953 169.135 11.7273C169.841 10.9426 170.193 9.64868 170.193 7.84555C170.193 6.44312 169.875 5.42468 169.239 4.79025C168.619 4.13912 167.665 3.81355 166.375 3.81355C165.893 3.81355 165.394 3.84694 164.878 3.91373C164.638 3.94712 164.466 3.96381 164.362 3.96381V12.7541Z" fill="#2A2A2A"/>
<path d="M175.744 14.1064C175.744 12.537 176.062 11.2014 176.698 10.0995C177.352 8.99755 178.22 8.17112 179.304 7.62016C180.388 7.05251 181.566 6.76868 182.839 6.76868C185.006 6.76868 186.674 7.41981 187.844 8.72208C189.031 10.0076 189.624 11.7607 189.624 13.9812C189.624 15.5673 189.297 16.9196 188.644 18.0383C188.007 19.1402 187.147 19.9666 186.064 20.5176C184.997 21.0518 183.819 21.3189 182.529 21.3189C180.379 21.3189 178.711 20.6762 177.524 19.3906C176.337 18.0883 175.744 16.3269 175.744 14.1064ZM182.735 19.6911C184.679 19.6911 185.651 17.8713 185.651 14.2316C185.651 12.3283 185.419 10.8842 184.954 9.89912C184.49 8.89738 183.733 8.39651 182.684 8.39651C180.689 8.39651 179.691 10.2163 179.691 13.856C179.691 15.7593 179.932 17.2118 180.413 18.2136C180.912 19.1986 181.686 19.6911 182.735 19.6911Z" fill="#2A2A2A"/>
<path d="M194.833 18.9899C194.971 19.1903 195.28 19.3823 195.762 19.5659C196.261 19.7329 196.76 19.8163 197.258 19.8163C198.067 19.8163 198.669 19.6577 199.064 19.3405C199.477 19.0066 199.684 18.5725 199.684 18.0383C199.684 17.4873 199.434 17.0449 198.935 16.7109C198.437 16.3603 197.594 15.9346 196.407 15.4337L195.685 15.1332C194.498 14.649 193.612 14.0647 193.027 13.3802C192.442 12.6956 192.15 11.8108 192.15 10.7256C192.15 9.97425 192.382 9.30642 192.847 8.72208C193.311 8.12103 193.965 7.65355 194.807 7.31964C195.65 6.98573 196.622 6.81877 197.723 6.81877C198.531 6.81877 199.219 6.86886 199.787 6.96903C200.372 7.0692 200.982 7.20277 201.619 7.36973C201.963 7.4866 202.221 7.55338 202.393 7.57007V10.8508H200.354L199.761 8.94747C199.658 8.78051 199.426 8.63025 199.064 8.49668C198.703 8.36312 198.29 8.29634 197.826 8.29634C197.121 8.29634 196.553 8.4466 196.123 8.74712C195.71 9.03094 195.504 9.43164 195.504 9.94921C195.504 10.4167 195.65 10.809 195.943 11.1262C196.235 11.4268 196.553 11.6605 196.897 11.8275C197.241 11.9944 197.878 12.2699 198.806 12.6539C199.735 13.0379 200.501 13.4052 201.103 13.7558C201.722 14.1064 202.229 14.5656 202.625 15.1332C203.038 15.6842 203.244 16.3603 203.244 17.1617C203.244 18.3972 202.745 19.3989 201.748 20.1669C200.75 20.9349 199.314 21.3189 197.439 21.3189C196.562 21.3189 195.771 21.2438 195.065 21.0936C194.377 20.9433 193.578 20.7429 192.666 20.4925L192.098 20.3172V17.0115H194.24L194.833 18.9899Z" fill="#2A2A2A"/>
<path d="M209.682 21.2689C208.599 21.2689 207.799 21.0268 207.283 20.5426C206.767 20.0584 206.509 19.2904 206.509 18.2386V9.04764H204.832V7.74538C204.97 7.69529 205.219 7.61181 205.58 7.49495C205.941 7.36138 206.217 7.25286 206.406 7.16938C206.698 6.95234 206.948 6.57668 207.154 6.04242C207.309 5.69181 207.593 4.82364 208.005 3.4379H210.069L210.173 7.11929H214.12V9.04764H210.198V16.0849C210.198 17.0198 210.224 17.6793 210.276 18.0633C210.327 18.4473 210.439 18.6977 210.611 18.8146C210.783 18.9148 211.084 18.9649 211.514 18.9649C211.944 18.9649 212.391 18.9231 212.856 18.8396C213.32 18.7395 213.707 18.6226 214.017 18.489L214.507 19.8915C214.025 20.2421 213.32 20.5593 212.391 20.8431C211.463 21.1269 210.56 21.2689 209.682 21.2689Z" fill="#2A2A2A"/>
<line y1="20.0435" x2="20.0667" y2="20.0435" stroke="#F02F23" stroke-width="2"/>
</svg>
